<svg xmlns="http://www.w3.org/2000/svg" viewBox="0 0 440 463.13"><defs><style>.cls-1{fill:#d3a06c;}.cls-2{fill:#eabd8c;}.cls-3{fill:#eff3f0;}.cls-4{fill:#92e0c0;}</style></defs><title>資產 34</title><g id="圖層_2" data-name="圖層 2"><g id="圖層_1-2" data-name="圖層 1"><path class="cls-1" d="M262.5,450.63l-2.5,7.5a162.5,162.5,0,0,1-80,0l-2.5-7.5-2.5-5h90Z"/><ellipse class="cls-2" cx="220" cy="428.13" rx="75" ry="25"/><path class="cls-3" d="M440,220c0,121.5-98.5,220-220,220S0,341.5,0,220,98.5,0,220,0,440,98.5,440,220"/><path class="cls-4" d="M227.4,407.1h-5a30,30,0,0,0-30,30v5h5a30,30,0,0,0,30-30Z"/><path class="cls-4" d="M157.4,407.1h5a30,30,0,0,1,30,30v5h-5a30,30,0,0,1-30-30Z"/></g></g></svg>